{
    "asset" : {
        "generator" : "Khronos glTF Blender I/O v0.9.36",
        "version" : "2.0"
    },
    "scene" : 0,
    "scenes" : [
        {
            "name" : "Scene",
            "nodes" : [
                0
            ]
        }
    ],
    "nodes" : [
        {
            "mesh" : 0,
            "name" : "Chimmney",
            "rotation" : [
                0.6849972009658813,
                0.17543914914131165,
                -0.17543919384479523,
                0.6849970817565918
            ],
            "scale" : [
                0.024446846917271614,
                0.024446846917271614,
                0.024446845054626465
            ],
            "translation" : [
                -29.580503463745117,
                3.8705289363861084,
                17.495662689208984
            ]
        }
    ],
    "animations" : [
        {
            "channels" : [
                {
                    "sampler" : 0,
                    "target" : {
                        "node" : 0,
                        "path" : "translation"
                    }
                },
                {
                    "sampler" : 1,
                    "target" : {
                        "node" : 0,
                        "path" : "rotation"
                    }
                },
                {
                    "sampler" : 2,
                    "target" : {
                        "node" : 0,
                        "path" : "scale"
                    }
                }
            ],
            "name" : "gobble0",
            "samplers" : [
                {
                    "input" : 14,
                    "interpolation" : "LINEAR",
                    "output" : 15
                },
                {
                    "input" : 14,
                    "interpolation" : "LINEAR",
                    "output" : 16
                },
                {
                    "input" : 14,
                    "interpolation" : "LINEAR",
                    "output" : 17
                }
            ]
        }
    ],
    "materials" : [
        {
            "doubleSided" : true,
            "extras" : {},
            "name" : "Christmas_Log_Interior.003",
            "pbrMetallicRoughness" : {
                "baseColorTexture" : {
                    "index" : 0,
                    "texCoord" : 0
                },
                "metallicFactor" : 0,
                "roughnessFactor" : 0.5527864098548889
            }
        },
        {
            "doubleSided" : true,
            "extras" : {},
            "name" : "Christmas_Log_village.003",
            "pbrMetallicRoughness" : {
                "baseColorTexture" : {
                    "index" : 1,
                    "texCoord" : 0
                },
                "metallicFactor" : 0,
                "roughnessFactor" : 0.5527864098548889
            }
        },
        {
            "doubleSided" : true,
            "emissiveFactor" : [
                0.007921221666038036,
                0.6859572529792786,
                0.020364753901958466
            ],
            "extras" : {},
            "name" : "GreenGlow",
            "pbrMetallicRoughness" : {}
        }
    ],
    "meshes" : [
        {
            "name" : "Scene.049",
            "primitives" : [
                {
                    "attributes" : {
                        "POSITION" : 0,
                        "NORMAL" : 1,
                        "TEXCOORD_0" : 2,
                        "TEXCOORD_1" : 3
                    },
                    "indices" : 4,
                    "material" : 0
                },
                {
                    "attributes" : {
                        "POSITION" : 5,
                        "NORMAL" : 6,
                        "TEXCOORD_0" : 7,
                        "TEXCOORD_1" : 8
                    },
                    "indices" : 9,
                    "material" : 1
                },
                {
                    "attributes" : {
                        "POSITION" : 10,
                        "NORMAL" : 11,
                        "TEXCOORD_0" : 12,
                        "TEXCOORD_1" : 13
                    },
                    "indices" : 4,
                    "material" : 2
                }
            ]
        }
    ],
    "textures" : [
        {
            "source" : 0
        },
        {
            "source" : 1
        }
    ],
    "images" : [
        {
            "bufferView" : 5,
            "mimeType" : "image/png",
            "name" : "Christmas_Log_Interior"
        },
        {
            "bufferView" : 11,
            "mimeType" : "image/png",
            "name" : "Christmas_Log_village_Snow"
        }
    ],
    "accessors" : [
        {
            "bufferView" : 0,
            "componentType" : 5126,
            "count" : 16,
            "max" : [
                34.566986083984375,
                40.079368591308594,
                1.33514404296875e-05
            ],
            "min" : [
                -34.56719970703125,
                -40.07939529418945,
                -165.480712890625
            ],
            "type" : "VEC3"
        },
        {
            "bufferView" : 1,
            "componentType" : 5126,
            "count" : 16,
            "type" : "VEC3"
        },
        {
            "bufferView" : 2,
            "componentType" : 5126,
            "count" : 16,
            "type" : "VEC2"
        },
        {
            "bufferView" : 3,
            "componentType" : 5126,
            "count" : 16,
            "type" : "VEC2"
        },
        {
            "bufferView" : 4,
            "componentType" : 5123,
            "count" : 24,
            "type" : "SCALAR"
        },
        {
            "bufferView" : 6,
            "componentType" : 5126,
            "count" : 52,
            "max" : [
                41.536651611328125,
                45.80753707885742,
                -138.2667999267578
            ],
            "min" : [
                -41.536651611328125,
                -45.80759048461914,
                -199.31961059570312
            ],
            "type" : "VEC3"
        },
        {
            "bufferView" : 7,
            "componentType" : 5126,
            "count" : 52,
            "type" : "VEC3"
        },
        {
            "bufferView" : 8,
            "componentType" : 5126,
            "count" : 52,
            "type" : "VEC2"
        },
        {
            "bufferView" : 9,
            "componentType" : 5126,
            "count" : 52,
            "type" : "VEC2"
        },
        {
            "bufferView" : 10,
            "componentType" : 5123,
            "count" : 78,
            "type" : "SCALAR"
        },
        {
            "bufferView" : 12,
            "componentType" : 5126,
            "count" : 16,
            "max" : [
                41.536651611328125,
                45.80753707885742,
                -169.79388427734375
            ],
            "min" : [
                -41.536651611328125,
                -45.80759048461914,
                -195.22067260742188
            ],
            "type" : "VEC3"
        },
        {
            "bufferView" : 13,
            "componentType" : 5126,
            "count" : 16,
            "type" : "VEC3"
        },
        {
            "bufferView" : 14,
            "componentType" : 5126,
            "count" : 16,
            "type" : "VEC2"
        },
        {
            "bufferView" : 15,
            "componentType" : 5126,
            "count" : 16,
            "type" : "VEC2"
        },
        {
            "bufferView" : 16,
            "componentType" : 5126,
            "count" : 20,
            "max" : [
                0.8333333333333334
            ],
            "min" : [
                0.041666666666666664
            ],
            "type" : "SCALAR"
        },
        {
            "bufferView" : 17,
            "componentType" : 5126,
            "count" : 20,
            "type" : "VEC3"
        },
        {
            "bufferView" : 18,
            "componentType" : 5126,
            "count" : 20,
            "type" : "VEC4"
        },
        {
            "bufferView" : 19,
            "componentType" : 5126,
            "count" : 20,
            "type" : "VEC3"
        }
    ],
    "bufferViews" : [
        {
            "buffer" : 0,
            "byteLength" : 192,
            "byteOffset" : 0
        },
        {
            "buffer" : 0,
            "byteLength" : 192,
            "byteOffset" : 192
        },
        {
            "buffer" : 0,
            "byteLength" : 128,
            "byteOffset" : 384
        },
        {
            "buffer" : 0,
            "byteLength" : 128,
            "byteOffset" : 512
        },
        {
            "buffer" : 0,
            "byteLength" : 48,
            "byteOffset" : 640
        },
        {
            "buffer" : 0,
            "byteLength" : 402996,
            "byteOffset" : 688
        },
        {
            "buffer" : 0,
            "byteLength" : 624,
            "byteOffset" : 403684
        },
        {
            "buffer" : 0,
            "byteLength" : 624,
            "byteOffset" : 404308
        },
        {
            "buffer" : 0,
            "byteLength" : 416,
            "byteOffset" : 404932
        },
        {
            "buffer" : 0,
            "byteLength" : 416,
            "byteOffset" : 405348
        },
        {
            "buffer" : 0,
            "byteLength" : 156,
            "byteOffset" : 405764
        },
        {
            "buffer" : 0,
            "byteLength" : 233867,
            "byteOffset" : 405920
        },
        {
            "buffer" : 0,
            "byteLength" : 192,
            "byteOffset" : 639788
        },
        {
            "buffer" : 0,
            "byteLength" : 192,
            "byteOffset" : 639980
        },
        {
            "buffer" : 0,
            "byteLength" : 128,
            "byteOffset" : 640172
        },
        {
            "buffer" : 0,
            "byteLength" : 128,
            "byteOffset" : 640300
        },
        {
            "buffer" : 0,
            "byteLength" : 80,
            "byteOffset" : 640428
        },
        {
            "buffer" : 0,
            "byteLength" : 240,
            "byteOffset" : 640508
        },
        {
            "buffer" : 0,
            "byteLength" : 320,
            "byteOffset" : 640748
        },
        {
            "buffer" : 0,
            "byteLength" : 240,
            "byteOffset" : 641068
        }
    ],
    "buffers" : [
        {
            "byteLength" : 641308,
            "uri" : "data:application/octet-stream;base64,"
        }
    ]
}
