{
    "asset" : {
        "generator" : "Khronos glTF Blender I/O v0.9.36",
        "version" : "2.0"
    },
    "scene" : 0,
    "scenes" : [
        {
            "name" : "Scene",
            "nodes" : [
                1
            ]
        }
    ],
    "nodes" : [
        {
            "mesh" : 0,
            "name" : "santa_sleigh_ld_collider",
            "rotation" : [
                0,
                1,
                0,
                1.7086014381106907e-08
            ],
            "scale" : [
                4.34702205657959,
                0.7219496369361877,
                1.8275364637374878
            ],
            "translation" : [
                -0.9468841552734375,
                -2.396509885787964,
                0.7833900451660156
            ]
        },
        {
            "children" : [
                0
            ],
            "mesh" : 1,
            "name" : "santa_sleigh_ld",
            "rotation" : [
                0,
                -1,
                0,
                7.549790126404332e-08
            ],
            "scale" : [
                0.6918296217918396,
                0.605350911617279,
                1.037744402885437
            ],
            "translation" : [
                -11.45566177368164,
                -1.6220049858093262,
                13.658859252929688
            ]
        }
    ],
    "animations" : [
        {
            "channels" : [
                {
                    "sampler" : 0,
                    "target" : {
                        "node" : 1,
                        "path" : "translation"
                    }
                },
                {
                    "sampler" : 1,
                    "target" : {
                        "node" : 1,
                        "path" : "rotation"
                    }
                }
            ],
            "name" : "santa_sleigh_ldAction.003",
            "samplers" : [
                {
                    "input" : 39,
                    "interpolation" : "CUBICSPLINE",
                    "output" : 40
                },
                {
                    "input" : 39,
                    "interpolation" : "CUBICSPLINE",
                    "output" : 41
                }
            ]
        }
    ],
    "materials" : [
        {
            "doubleSided" : true,
            "name" : "Present.001",
            "pbrMetallicRoughness" : {
                "baseColorFactor" : [
                    0.800000011920929,
                    0.800000011920929,
                    0.800000011920929,
                    1
                ],
                "metallicFactor" : 0,
                "roughnessFactor" : 0.5
            }
        },
        {
            "doubleSided" : true,
            "name" : "Seat",
            "pbrMetallicRoughness" : {
                "baseColorFactor" : [
                    0.5814529061317444,
                    0.006235379725694656,
                    0.012033403851091862,
                    1
                ],
                "metallicFactor" : 0,
                "roughnessFactor" : 0.5
            }
        },
        {
            "doubleSided" : true,
            "name" : "SleighColor",
            "pbrMetallicRoughness" : {
                "baseColorFactor" : [
                    0.8140300512313843,
                    0.549294650554657,
                    0.0877559706568718,
                    1
                ],
                "metallicFactor" : 0.800000011920929,
                "roughnessFactor" : 0.22499999403953552
            }
        },
        {
            "doubleSided" : true,
            "name" : "White.001",
            "pbrMetallicRoughness" : {
                "baseColorFactor" : [
                    0.9113934636116028,
                    0.9074476361274719,
                    0.9074476361274719,
                    1
                ],
                "metallicFactor" : 0.25,
                "roughnessFactor" : 0.949999988079071
            }
        },
        {
            "doubleSided" : true,
            "name" : "Skin.001",
            "pbrMetallicRoughness" : {
                "baseColorFactor" : [
                    0.9550898671150208,
                    0.8076424598693848,
                    0.757798433303833,
                    1
                ],
                "metallicFactor" : 0.5,
                "roughnessFactor" : 0.75
            }
        },
        {
            "doubleSided" : true,
            "name" : "seat.002",
            "pbrMetallicRoughness" : {
                "baseColorFactor" : [
                    0.8000000715255737,
                    0.00699959509074688,
                    0,
                    1
                ],
                "metallicFactor" : 0,
                "roughnessFactor" : 0.6578947305679321
            }
        }
    ],
    "meshes" : [
        {
            "name" : "Cube.109",
            "primitives" : [
                {
                    "attributes" : {
                        "POSITION" : 0,
                        "NORMAL" : 1,
                        "TEXCOORD_0" : 2
                    },
                    "indices" : 3,
                    "material" : 0
                }
            ]
        },
        {
            "name" : "Cube.106",
            "primitives" : [
                {
                    "attributes" : {
                        "POSITION" : 4,
                        "NORMAL" : 5,
                        "TEXCOORD_0" : 6,
                        "TEXCOORD_1" : 7,
                        "JOINTS_0" : 8,
                        "WEIGHTS_0" : 9
                    },
                    "indices" : 10,
                    "material" : 1
                },
                {
                    "attributes" : {
                        "POSITION" : 11,
                        "NORMAL" : 12,
                        "TEXCOORD_0" : 13,
                        "TEXCOORD_1" : 14,
                        "JOINTS_0" : 15,
                        "WEIGHTS_0" : 16
                    },
                    "indices" : 17,
                    "material" : 2
                },
                {
                    "attributes" : {
                        "POSITION" : 18,
                        "NORMAL" : 19,
                        "TEXCOORD_0" : 20,
                        "TEXCOORD_1" : 21,
                        "JOINTS_0" : 22,
                        "WEIGHTS_0" : 23
                    },
                    "indices" : 24,
                    "material" : 3
                },
                {
                    "attributes" : {
                        "POSITION" : 25,
                        "NORMAL" : 26,
                        "TEXCOORD_0" : 27,
                        "TEXCOORD_1" : 28,
                        "JOINTS_0" : 29,
                        "WEIGHTS_0" : 30
                    },
                    "indices" : 31,
                    "material" : 4
                },
                {
                    "attributes" : {
                        "POSITION" : 32,
                        "NORMAL" : 33,
                        "TEXCOORD_0" : 34,
                        "TEXCOORD_1" : 35,
                        "JOINTS_0" : 36,
                        "WEIGHTS_0" : 37
                    },
                    "indices" : 38,
                    "material" : 5
                }
            ]
        }
    ],
    "accessors" : [
        {
            "bufferView" : 0,
            "componentType" : 5126,
            "count" : 138,
            "max" : [
                1,
                6.278659820556641,
                1.211889386177063
            ],
            "min" : [
                -1,
                -1,
                -1.1969375610351562
            ],
            "type" : "VEC3"
        },
        {
            "bufferView" : 1,
            "componentType" : 5126,
            "count" : 138,
            "type" : "VEC3"
        },
        {
            "bufferView" : 2,
            "componentType" : 5126,
            "count" : 138,
            "type" : "VEC2"
        },
        {
            "bufferView" : 3,
            "componentType" : 5123,
            "count" : 240,
            "type" : "SCALAR"
        },
        {
            "bufferView" : 4,
            "componentType" : 5126,
            "count" : 1669,
            "max" : [
                3.1583869457244873,
                1.5039652585983276,
                2.6501355171203613
            ],
            "min" : [
                -4.081624507904053,
                -1.8014500141143799,
                -1.1039644479751587
            ],
            "type" : "VEC3"
        },
        {
            "bufferView" : 5,
            "componentType" : 5126,
            "count" : 1669,
            "type" : "VEC3"
        },
        {
            "bufferView" : 6,
            "componentType" : 5126,
            "count" : 1669,
            "type" : "VEC2"
        },
        {
            "bufferView" : 7,
            "componentType" : 5126,
            "count" : 1669,
            "type" : "VEC2"
        },
        {
            "bufferView" : 8,
            "componentType" : 5123,
            "count" : 1669,
            "type" : "VEC4"
        },
        {
            "bufferView" : 9,
            "componentType" : 5126,
            "count" : 1669,
            "type" : "VEC4"
        },
        {
            "bufferView" : 10,
            "componentType" : 5123,
            "count" : 6096,
            "type" : "SCALAR"
        },
        {
            "bufferView" : 11,
            "componentType" : 5126,
            "count" : 2945,
            "max" : [
                3.8675384521484375,
                1.4584214687347412,
                2.6468024253845215
            ],
            "min" : [
                -5.7328572273254395,
                -3.11885404586792,
                -1.099472165107727
            ],
            "type" : "VEC3"
        },
        {
            "bufferView" : 12,
            "componentType" : 5126,
            "count" : 2945,
            "type" : "VEC3"
        },
        {
            "bufferView" : 13,
            "componentType" : 5126,
            "count" : 2945,
            "type" : "VEC2"
        },
        {
            "bufferView" : 14,
            "componentType" : 5126,
            "count" : 2945,
            "type" : "VEC2"
        },
        {
            "bufferView" : 15,
            "componentType" : 5123,
            "count" : 2945,
            "type" : "VEC4"
        },
        {
            "bufferView" : 16,
            "componentType" : 5126,
            "count" : 2945,
            "type" : "VEC4"
        },
        {
            "bufferView" : 17,
            "componentType" : 5123,
            "count" : 9240,
            "type" : "SCALAR"
        },
        {
            "bufferView" : 18,
            "componentType" : 5126,
            "count" : 1357,
            "max" : [
                1.1072880029678345,
                2.826256513595581,
                1.0348418951034546
            ],
            "min" : [
                -1.6205322742462158,
                -0.6964696049690247,
                -0.6172727942466736
            ],
            "type" : "VEC3"
        },
        {
            "bufferView" : 19,
            "componentType" : 5126,
            "count" : 1357,
            "type" : "VEC3"
        },
        {
            "bufferView" : 20,
            "componentType" : 5126,
            "count" : 1357,
            "type" : "VEC2"
        },
        {
            "bufferView" : 21,
            "componentType" : 5126,
            "count" : 1357,
            "type" : "VEC2"
        },
        {
            "bufferView" : 22,
            "componentType" : 5123,
            "count" : 1357,
            "type" : "VEC4"
        },
        {
            "bufferView" : 23,
            "componentType" : 5126,
            "count" : 1357,
            "type" : "VEC4"
        },
        {
            "bufferView" : 24,
            "componentType" : 5123,
            "count" : 6138,
            "type" : "SCALAR"
        },
        {
            "bufferView" : 25,
            "componentType" : 5126,
            "count" : 310,
            "max" : [
                0.5731251239776611,
                2.6911468505859375,
                0.5334290862083435
            ],
            "min" : [
                -0.39280804991722107,
                1.5818424224853516,
                -0.039914458990097046
            ],
            "type" : "VEC3"
        },
        {
            "bufferView" : 26,
            "componentType" : 5126,
            "count" : 310,
            "type" : "VEC3"
        },
        {
            "bufferView" : 27,
            "componentType" : 5126,
            "count" : 310,
            "type" : "VEC2"
        },
        {
            "bufferView" : 28,
            "componentType" : 5126,
            "count" : 310,
            "type" : "VEC2"
        },
        {
            "bufferView" : 29,
            "componentType" : 5123,
            "count" : 310,
            "type" : "VEC4"
        },
        {
            "bufferView" : 30,
            "componentType" : 5126,
            "count" : 310,
            "type" : "VEC4"
        },
        {
            "bufferView" : 31,
            "componentType" : 5123,
            "count" : 1344,
            "type" : "SCALAR"
        },
        {
            "bufferView" : 32,
            "componentType" : 5126,
            "count" : 1271,
            "max" : [
                1.0338462591171265,
                2.7913107872009277,
                1.0825181007385254
            ],
            "min" : [
                -2.448316812515259,
                -1.1458309888839722,
                -0.6172727942466736
            ],
            "type" : "VEC3"
        },
        {
            "bufferView" : 33,
            "componentType" : 5126,
            "count" : 1271,
            "type" : "VEC3"
        },
        {
            "bufferView" : 34,
            "componentType" : 5126,
            "count" : 1271,
            "type" : "VEC2"
        },
        {
            "bufferView" : 35,
            "componentType" : 5126,
            "count" : 1271,
            "type" : "VEC2"
        },
        {
            "bufferView" : 36,
            "componentType" : 5123,
            "count" : 1271,
            "type" : "VEC4"
        },
        {
            "bufferView" : 37,
            "componentType" : 5126,
            "count" : 1271,
            "type" : "VEC4"
        },
        {
            "bufferView" : 38,
            "componentType" : 5123,
            "count" : 5688,
            "type" : "SCALAR"
        },
        {
            "bufferView" : 39,
            "componentType" : 5126,
            "count" : 43,
            "max" : [
                90.83333333333333
            ],
            "min" : [
                0.041666666666666664
            ],
            "type" : "SCALAR"
        },
        {
            "bufferView" : 40,
            "componentType" : 5126,
            "count" : 129,
            "type" : "VEC3"
        },
        {
            "bufferView" : 41,
            "componentType" : 5126,
            "count" : 129,
            "type" : "VEC4"
        }
    ],
    "bufferViews" : [
        {
            "buffer" : 0,
            "byteLength" : 1656,
            "byteOffset" : 0
        },
        {
            "buffer" : 0,
            "byteLength" : 1656,
            "byteOffset" : 1656
        },
        {
            "buffer" : 0,
            "byteLength" : 1104,
            "byteOffset" : 3312
        },
        {
            "buffer" : 0,
            "byteLength" : 480,
            "byteOffset" : 4416
        },
        {
            "buffer" : 0,
            "byteLength" : 20028,
            "byteOffset" : 4896
        },
        {
            "buffer" : 0,
            "byteLength" : 20028,
            "byteOffset" : 24924
        },
        {
            "buffer" : 0,
            "byteLength" : 13352,
            "byteOffset" : 44952
        },
        {
            "buffer" : 0,
            "byteLength" : 13352,
            "byteOffset" : 58304
        },
        {
            "buffer" : 0,
            "byteLength" : 13352,
            "byteOffset" : 71656
        },
        {
            "buffer" : 0,
            "byteLength" : 26704,
            "byteOffset" : 85008
        },
        {
            "buffer" : 0,
            "byteLength" : 12192,
            "byteOffset" : 111712
        },
        {
            "buffer" : 0,
            "byteLength" : 35340,
            "byteOffset" : 123904
        },
        {
            "buffer" : 0,
            "byteLength" : 35340,
            "byteOffset" : 159244
        },
        {
            "buffer" : 0,
            "byteLength" : 23560,
            "byteOffset" : 194584
        },
        {
            "buffer" : 0,
            "byteLength" : 23560,
            "byteOffset" : 218144
        },
        {
            "buffer" : 0,
            "byteLength" : 23560,
            "byteOffset" : 241704
        },
        {
            "buffer" : 0,
            "byteLength" : 47120,
            "byteOffset" : 265264
        },
        {
            "buffer" : 0,
            "byteLength" : 18480,
            "byteOffset" : 312384
        },
        {
            "buffer" : 0,
            "byteLength" : 16284,
            "byteOffset" : 330864
        },
        {
            "buffer" : 0,
            "byteLength" : 16284,
            "byteOffset" : 347148
        },
        {
            "buffer" : 0,
            "byteLength" : 10856,
            "byteOffset" : 363432
        },
        {
            "buffer" : 0,
            "byteLength" : 10856,
            "byteOffset" : 374288
        },
        {
            "buffer" : 0,
            "byteLength" : 10856,
            "byteOffset" : 385144
        },
        {
            "buffer" : 0,
            "byteLength" : 21712,
            "byteOffset" : 396000
        },
        {
            "buffer" : 0,
            "byteLength" : 12276,
            "byteOffset" : 417712
        },
        {
            "buffer" : 0,
            "byteLength" : 3720,
            "byteOffset" : 429988
        },
        {
            "buffer" : 0,
            "byteLength" : 3720,
            "byteOffset" : 433708
        },
        {
            "buffer" : 0,
            "byteLength" : 2480,
            "byteOffset" : 437428
        },
        {
            "buffer" : 0,
            "byteLength" : 2480,
            "byteOffset" : 439908
        },
        {
            "buffer" : 0,
            "byteLength" : 2480,
            "byteOffset" : 442388
        },
        {
            "buffer" : 0,
            "byteLength" : 4960,
            "byteOffset" : 444868
        },
        {
            "buffer" : 0,
            "byteLength" : 2688,
            "byteOffset" : 449828
        },
        {
            "buffer" : 0,
            "byteLength" : 15252,
            "byteOffset" : 452516
        },
        {
            "buffer" : 0,
            "byteLength" : 15252,
            "byteOffset" : 467768
        },
        {
            "buffer" : 0,
            "byteLength" : 10168,
            "byteOffset" : 483020
        },
        {
            "buffer" : 0,
            "byteLength" : 10168,
            "byteOffset" : 493188
        },
        {
            "buffer" : 0,
            "byteLength" : 10168,
            "byteOffset" : 503356
        },
        {
            "buffer" : 0,
            "byteLength" : 20336,
            "byteOffset" : 513524
        },
        {
            "buffer" : 0,
            "byteLength" : 11376,
            "byteOffset" : 533860
        },
        {
            "buffer" : 0,
            "byteLength" : 172,
            "byteOffset" : 545236
        },
        {
            "buffer" : 0,
            "byteLength" : 1548,
            "byteOffset" : 545408
        },
        {
            "buffer" : 0,
            "byteLength" : 2064,
            "byteOffset" : 546956
        }
    ],
    "buffers" : [
        {
            "byteLength" : 549020,
            "uri" : "data:application/octet-stream;base64,"
        }
    ]
}
